<svg xmlns="http://www.w3.org/2000/svg" version="1.1" xmlns:xlink="http://www.w3.org/1999/xlink" xmlns:svgjs="http://svgjs.dev/svgjs" width="1500" height="1500" viewBox="0 0 1500 1500"><rect width="1500" height="1500" fill="#575c5f"></rect><g transform="matrix(0.6666666666666666,0,0,0.6666666666666666,249.39393939393938,435.99032258064517)"><svg viewBox="0 0 396 248" data-background-color="#575c5f" preserveAspectRatio="xMidYMid meet" height="939" width="1500" xmlns="http://www.w3.org/2000/svg" xmlns:xlink="http://www.w3.org/1999/xlink"><g id="tight-bounds" transform="matrix(1,0,0,1,0.2400000000000091,0.4000000000000057)"><svg viewBox="0 0 395.52 247.2" height="247.2" width="395.52"><g><svg></svg></g><g><svg viewBox="0 0 395.52 247.2" height="247.2" width="395.52"><g transform="matrix(1,0,0,1,114.98061939614058,47.215199999999996)"><svg viewBox="0 0 165.55876120771882 152.7696" height="152.7696" width="165.55876120771882"><g><svg viewBox="0 0 244.43135999999998 225.5494111109296" height="152.7696" width="165.55876120771882"><g transform="matrix(1,0,0,1,0,141.6139297316193)"><svg viewBox="0 0 244.43135999999998 83.93548137931033" height="83.93548137931033" width="244.43135999999998"><g id="textblocktransform"><svg viewBox="0 0 244.43135999999998 83.93548137931033" height="83.93548137931033" width="244.43135999999998" id="textblock"><g><svg viewBox="0 0 244.43135999999998 83.93548137931033" height="83.93548137931033" width="244.43135999999998"><g transform="matrix(1,0,0,1,0,0)"><svg width="244.43135999999998" viewBox="-0.75 -46.5 139.18 47.8" height="83.93548137931033" data-palette-color="#ffffff"><g class="wordmark-text-0" data-fill-palette-color="primary" id="text-0"><path d="M14.55-3.15L14.55-3.15Q10.4 0.65 8.85 0.65L8.85 0.65Q8.15 0.65 8.15-0.15L8.15-0.15Q8.15-1.15 9.03-3.2 9.9-5.25 10.8-6.8L10.8-6.8 11.7-8.35Q11.9-8.7 11.9-8.8 11.9-8.9 11.8-8.9L11.8-8.9Q11.6-8.9 11.05-8.35L11.05-8.35Q9.55-6.7 7.63-4.83 5.7-2.95 4.5-1.9L4.5-1.9 3.35-0.9Q1.4 0.6 0.35 0.6L0.35 0.6Q-0.75 0.6-0.75-1.1L-0.75-1.1Q-0.75-1.95-0.28-3.7 0.2-5.45 0.45-6.05L0.45-6.05Q1.6-8.85 3.33-11.5 5.05-14.15 7.4-16.57 9.75-19 12.88-20.5 16-22 19.35-22L19.35-22Q22.15-22 22.15-21.15L22.15-21.15Q22.15-20.65 20.9-20.65L20.9-20.65Q16.3-20.65 12.28-16.73 8.25-12.8 5.75-7.7L5.75-7.7Q5.05-6.3 5.05-5.35L5.05-5.35Q5.05-4.8 5.4-4.8L5.4-4.8Q6-4.8 6.95-5.65L6.95-5.65Q7.55-6.2 8.58-7.1 9.6-8 11.9-10.55 14.2-13.1 15.55-15.3L15.55-15.3Q15.75-15.7 16.18-16.25 16.6-16.8 17.8-17.73 19-18.65 20.2-18.65L20.2-18.65Q20.85-18.65 20.85-18.3L20.85-18.3Q20.85-18.2 20.7-17.95L20.7-17.95Q20.5-17.55 19.58-15.95 18.65-14.35 17.85-12.93 17.05-11.5 16.15-9.83 15.25-8.15 14.73-6.95 14.2-5.75 14.2-5.35L14.2-5.35Q14.2-5.05 14.45-5.05L14.45-5.05Q15.2-5.05 18.1-7.95L18.1-7.95Q20.3-10.25 23.25-13.6L23.25-13.6Q23.4-13.75 23.5-13.75 23.6-13.75 23.6-13.55L23.6-13.55Q23.6-12.6 22.85-11.7L22.85-11.7Q17.95-6.25 14.55-3.15ZM31.05-10.35L31.05-10.35Q30.65-10.35 30.65-10.65L30.65-10.65Q30.65-10.8 30.8-11.05L30.8-11.05Q33.75-15.65 33.75-17.35L33.75-17.35Q33.75-17.8 33.4-17.8L33.4-17.8Q31.9-17.8 26.35-11L26.35-11Q24.7-8.9 23.27-6.65 21.85-4.4 21.3-3.2L21.3-3.2 20.7-2.05Q20.1-0.85 18.85 0.18 17.6 1.2 16.25 1.2L16.25 1.2Q15.55 1.2 15.55 0.85L15.55 0.85Q15.55 0.55 15.97-0.4 16.4-1.35 17-2.5 17.6-3.65 18.2-4.75 18.8-5.85 19.2-6.6L19.2-6.6 19.65-7.35 24.9-16.5Q27.95-22.25 31.3-22.25L31.3-22.25Q31.75-22.25 31.75-21.9L31.75-21.9Q31.75-21.45 29.57-18.18 27.4-14.9 27.05-14L27.05-14Q26.95-13.7 26.95-13.65L26.95-13.65Q26.95-13.55 27.05-13.55 27.15-13.55 27.4-13.8L27.4-13.8Q31.15-18.05 35.35-21.35L35.35-21.35Q35.6-21.6 36.45-22.08 37.3-22.55 37.95-22.55L37.95-22.55Q38.9-22.55 38.9-20.9L38.9-20.9Q38.9-19.1 37.7-16.6 36.5-14.1 34.45-12.2L34.45-12.2 34.25-12Q34.05-11.85 33.82-11.68 33.6-11.5 33.25-11.25 32.9-11 32.55-10.83 32.2-10.65 31.8-10.5 31.4-10.35 31.05-10.35ZM45.3-4.85L45.3-4.85Q43.05-2.7 40.22-0.83 37.39 1.05 35.45 1.05L35.45 1.05Q33.14 1.05 33.14-2.5L33.14-2.5Q33.14-6.25 35.8-10.83 38.45-15.4 42.52-18.65 46.59-21.9 50.25-21.9L50.25-21.9Q52.2-21.9 52.2-20.45L52.2-20.45Q52.2-17.95 48.95-14.8L48.95-14.8Q48.64-14.5 47.64-13.75 46.64-13 46.24-13L46.24-13Q45.99-13 45.99-13.25L45.99-13.25 46.14-13.7Q48.14-17.25 48.14-19.1L48.14-19.1Q48.14-20.1 47.49-20.1L47.49-20.1Q45.95-20.1 43.57-17.07 41.2-14.05 39.45-10.18 37.7-6.3 37.7-4.05L37.7-4.05Q37.7-2.25 38.99-2.25L38.99-2.25Q41.24-2.25 44.64-5.5L44.64-5.5Q47.3-7.95 52.25-13.6L52.25-13.6Q52.39-13.75 52.5-13.75 52.59-13.75 52.59-13.55L52.59-13.55Q52.59-12.6 51.84-11.7L51.84-11.7Q48.14-7.6 45.3-4.85ZM65.49-7.55L65.49-7.55Q67.59-9.65 71.04-13.6L71.04-13.6Q71.19-13.75 71.29-13.75 71.39-13.75 71.39-13.55L71.39-13.55Q71.39-12.6 70.64-11.7L70.64-11.7Q66.94-7.6 64.09-4.85L64.09-4.85Q58.09 0.7 56.19 0.7L56.19 0.7Q55.44 0.7 55.44-0.25L55.44-0.25Q55.44-2.05 57.49-5.73 59.54-9.4 61.57-12.58 63.59-15.75 63.59-16.3L63.59-16.3Q63.59-16.6 63.29-16.6L63.29-16.6Q62.09-16.6 58.74-12.9 55.39-9.2 53.09-6.25L53.09-6.25Q50.54-3.05 48.67-1.15 46.79 0.75 46.19 1L46.19 1 45.54 1.3Q45.09 1.3 45.09 0.8L45.09 0.8Q45.09 0 45.99-2.05 46.89-4.1 47.79-5.75L47.79-5.75 48.69-7.4 56.49-21.4Q65.69-37.65 70.99-44.5L70.99-44.5Q72.49-46.5 73.09-46.5L73.09-46.5Q73.39-46.5 73.39-46.1L73.39-46.1Q73.39-45.05 71.79-41.8L71.79-41.8Q63.94-27.65 60.89-22.2L60.89-22.2Q59.04-18.9 57.54-16.32 56.04-13.75 55.42-12.7 54.79-11.65 54.34-10.88 53.89-10.1 53.64-9.55L53.64-9.55Q53.59-9.4 53.59-9.25L53.59-9.25Q53.59-9 53.69-9 53.79-9 54.09-9.3L54.09-9.3Q65.29-21.75 68.79-21.75L68.79-21.75Q69.49-21.75 69.49-21.05L69.49-21.05Q69.49-20.85 69.29-20.18 69.09-19.5 68.14-17.45 67.19-15.4 65.64-12.9L65.64-12.9Q64.69-11.5 63.24-8.9 61.79-6.3 61.79-5.5L61.79-5.5Q61.79-5.05 62.24-5.05L62.24-5.05Q62.39-5.05 62.67-5.18 62.94-5.3 63.29-5.6 63.64-5.9 63.92-6.15 64.19-6.4 64.72-6.88 65.24-7.35 65.49-7.55ZM73.19-4.85L73.19-4.85Q67.34 0.65 65.69 0.65L65.69 0.65Q64.84 0.65 64.84-0.5 64.84-1.65 65.74-3.85 66.64-6.05 67.54-7.7L67.54-7.7 68.44-9.3Q72.24-15.95 74.19-18.85L74.19-18.85Q75.04-20.1 76.37-20.98 77.69-21.85 78.84-21.85L78.84-21.85Q79.24-21.85 79.24-21.5L79.24-21.5Q79.24-21.25 78.89-20.55L78.89-20.55Q78.29-19.45 75.94-15.3 73.59-11.15 73.14-10.3L73.14-10.3Q71.09-6.7 71.09-5.5L71.09-5.5Q71.09-5.05 71.39-5.05L71.39-5.05Q71.89-5.05 74.59-7.55L74.59-7.55Q76.69-9.65 80.14-13.6L80.14-13.6Q80.29-13.75 80.39-13.75 80.49-13.75 80.49-13.55L80.49-13.55Q80.49-12.6 79.74-11.7L79.74-11.7Q76.04-7.6 73.19-4.85ZM79.84-24.7L79.84-24.7Q78.59-24.7 78.59-26.2L78.59-26.2Q78.59-27.6 79.64-29.03 80.69-30.45 81.94-30.45L81.94-30.45Q83.44-30.45 83.44-28.75L83.44-28.75Q83.44-27.35 82.29-26.03 81.14-24.7 79.84-24.7ZM84.09-7.55L84.09-7.55Q86.19-9.65 89.64-13.6L89.64-13.6Q89.79-13.75 89.89-13.75 89.99-13.75 89.99-13.55L89.99-13.55Q89.99-12.6 89.24-11.7L89.24-11.7Q85.54-7.6 82.69-4.85L82.69-4.85Q76.69 0.95 74.74 0.95L74.74 0.95Q74.04 0.95 74.04 0.05L74.04 0.05Q74.04-1 74.84-3.1 75.64-5.2 76.44-6.8L76.44-6.8 77.24-8.35Q78.39-10.4 81.04-15.35 83.69-20.3 86.16-24.7 88.64-29.1 90.84-32.65L90.84-32.65 86.89-32.65Q86.39-32.65 86.39-32.9 86.39-33.15 86.79-33.4 87.19-33.65 87.64-33.65L87.64-33.65Q88.74-33.65 91.49-33.7L91.49-33.7Q93.94-37.55 95.69-39.8L95.69-39.8Q97.24-41.75 97.84-41.75L97.84-41.75Q98.19-41.75 98.19-41.3L98.19-41.3Q98.19-40.25 96.29-36.8L96.29-36.8 94.59-33.7 99.74-33.7Q100.19-33.7 100.19-33.45L100.19-33.45Q100.19-32.65 98.74-32.65L98.74-32.65 94.04-32.65Q82.49-10.75 81.89-9.7L81.89-9.7Q79.79-5.85 79.79-4.7L79.79-4.7Q79.79-4.35 80.04-4.35L80.04-4.35Q80.74-4.35 84.09-7.55ZM98.64-16.95L98.64-16.95Q99.24-18.2 99.24-19.15L99.24-19.15Q99.24-19.95 98.74-19.95L98.74-19.95Q98.44-19.95 98.06-19.78 97.69-19.6 97.49-19.4L97.49-19.4 97.24-19.2Q95.69-17.85 93.36-14.28 91.04-10.7 91.04-9.7L91.04-9.7Q91.04-9.5 91.14-9.5L91.14-9.5Q91.44-9.5 92.46-10 93.48-10.5 95.41-12.35 97.34-14.2 98.64-16.95ZM96.39-5.5L96.39-5.5Q99.04-7.95 103.99-13.6L103.99-13.6Q104.14-13.75 104.24-13.75 104.34-13.75 104.34-13.55L104.34-13.55Q104.34-12.6 103.59-11.7L103.59-11.7Q99.89-7.6 97.04-4.85L97.04-4.85Q94.94-2.75 92.04-0.83 89.14 1.1 87.23 1.1L87.23 1.1Q84.94 1.1 84.94-2.1L84.94-2.1Q84.94-7.4 88.86-13.2 92.79-19 97.94-21.05L97.94-21.05Q100.09-21.95 101.84-21.95L101.84-21.95Q103.79-21.95 103.79-20.4L103.79-20.4Q103.79-17.5 99.69-13.75 95.59-10 90.48-8.05L90.48-8.05Q90.29-8 90.14-7.7L90.14-7.7Q89.39-5.65 89.39-4.05L89.39-4.05Q89.39-2.25 90.73-2.25L90.73-2.25Q92.89-2.25 96.39-5.5ZM111.43-4.85L111.43-4.85Q109.18-2.7 106.36-0.83 103.53 1.05 101.58 1.05L101.58 1.05Q99.28 1.05 99.28-2.5L99.28-2.5Q99.28-6.25 101.93-10.83 104.58-15.4 108.66-18.65 112.73-21.9 116.38-21.9L116.38-21.9Q118.33-21.9 118.33-20.45L118.33-20.45Q118.33-17.95 115.08-14.8L115.08-14.8Q114.78-14.5 113.78-13.75 112.78-13 112.38-13L112.38-13Q112.13-13 112.13-13.25L112.13-13.25 112.28-13.7Q114.28-17.25 114.28-19.1L114.28-19.1Q114.28-20.1 113.63-20.1L113.63-20.1Q112.08-20.1 109.71-17.07 107.33-14.05 105.58-10.18 103.83-6.3 103.83-4.05L103.83-4.05Q103.83-2.25 105.13-2.25L105.13-2.25Q107.38-2.25 110.78-5.5L110.78-5.5Q113.43-7.95 118.38-13.6L118.38-13.6Q118.53-13.75 118.63-13.75 118.73-13.75 118.73-13.55L118.73-13.55Q118.73-12.6 117.98-11.7L117.98-11.7Q114.28-7.6 111.43-4.85ZM122.33-7.55L122.33-7.55Q124.43-9.65 127.88-13.6L127.88-13.6Q128.03-13.75 128.13-13.75 128.23-13.75 128.23-13.55L128.23-13.55Q128.23-12.6 127.48-11.7L127.48-11.7Q123.78-7.6 120.93-4.85L120.93-4.85Q114.93 0.95 112.98 0.95L112.98 0.95Q112.28 0.95 112.28 0.05L112.28 0.05Q112.28-1 113.08-3.1 113.88-5.2 114.68-6.8L114.68-6.8 115.48-8.35Q116.63-10.4 119.28-15.35 121.93-20.3 124.41-24.7 126.88-29.1 129.08-32.65L129.08-32.65 125.13-32.65Q124.63-32.65 124.63-32.9 124.63-33.15 125.03-33.4 125.43-33.65 125.88-33.65L125.88-33.65Q126.98-33.65 129.73-33.7L129.73-33.7Q132.18-37.55 133.93-39.8L133.93-39.8Q135.48-41.75 136.08-41.75L136.08-41.75Q136.43-41.75 136.43-41.3L136.43-41.3Q136.43-40.25 134.53-36.8L134.53-36.8 132.83-33.7 137.98-33.7Q138.43-33.7 138.43-33.45L138.43-33.45Q138.43-32.65 136.98-32.65L136.98-32.65 132.28-32.65Q120.73-10.75 120.13-9.7L120.13-9.7Q118.03-5.85 118.03-4.7L118.03-4.7Q118.03-4.35 118.28-4.35L118.28-4.35Q118.98-4.35 122.33-7.55Z" fill="#ffffff" data-fill-palette-color="primary"></path></g></svg></g></svg></g></svg></g></svg></g><g transform="matrix(1,0,0,1,90.70016816322521,0)"><svg viewBox="0 0 63.031023673549555 121.79877702951724" height="121.79877702951724" width="63.031023673549555"><g><svg xmlns="http://www.w3.org/2000/svg" xmlns:xlink="http://www.w3.org/1999/xlink" version="1.1" x="0" y="0" viewBox="4.472 5.119 91.59100000000001 176.987" enable-background="new 0 0 100 185.708" xml:space="preserve" height="121.79877702951724" width="63.031023673549555" class="icon-icon-0" data-fill-palette-color="accent" id="icon-0"><rect x="4.472" y="161.291" width="37.093" height="20.815" fill="#ffffff" data-fill-palette-color="accent"></rect><rect x="58.969" y="161.291" width="37.094" height="20.815" fill="#ffffff" data-fill-palette-color="accent"></rect><path d="M4.472 159.871H96.063V27.24H4.472zM69.338 36.476H86.741V58.001H69.338zM69.338 64.61H86.741V86.135H69.338zM69.338 93.649H86.741V115.174H69.338zM69.338 125.432H86.741V146.957H69.338zM41.565 36.476H58.969V58.001H41.565zM41.565 64.61H58.969V86.135H41.565zM41.565 93.649H58.969V115.174H41.565zM41.565 125.432H58.969V146.957H41.565zM14.293 36.476H31.697V58.001H14.293zM14.293 64.61H31.697V86.135H14.293zM14.293 93.649H31.697V115.174H14.293zM14.293 125.432H31.697V146.957H14.293z" fill="#ffffff" data-fill-palette-color="accent"></path><polygon points="78.039,13.422 78.039,5.119 22.495,5.119 22.495,13.422 4.472,13.422 4.472,25.821 96.062,25.821 96.062,13.422 " fill="#ffffff" data-fill-palette-color="accent"></polygon></svg></g></svg></g><g></g></svg></g></svg></g><g><path d="M162.936 33.794A82.779 82.779 0 0 1 232.584 33.794L227.457 33.794A77.652 77.652 0 0 0 168.063 33.794L162.936 33.794M162.936 213.406A82.779 82.779 0 0 0 232.584 213.406L227.457 213.406A77.652 77.652 0 0 1 168.063 213.406L162.936 213.406" fill="#dedad7" stroke="transparent" data-fill-palette-color="tertiary"></path></g></svg></g><defs></defs></svg><rect width="395.52" height="247.2" fill="none" stroke="none" visibility="hidden"></rect></g></svg></g></svg>