<svg xmlns="http://www.w3.org/2000/svg" version="1.1" xmlns:xlink="http://www.w3.org/1999/xlink" xmlns:svgjs="http://svgjs.dev/svgjs" width="1500" height="1500" viewBox="0 0 1500 1500"><rect width="1500" height="1500" fill="#575c5f"></rect><g transform="matrix(0.6666666666666666,0,0,0.6666666666666666,249.39393939393938,435.9903225806451)"><svg viewBox="0 0 396 248" data-background-color="#575c5f" preserveAspectRatio="xMidYMid meet" height="939" width="1500" xmlns="http://www.w3.org/2000/svg" xmlns:xlink="http://www.w3.org/1999/xlink"><g id="tight-bounds" transform="matrix(1,0,0,1,0.2400000000000091,0.4000000000000057)"><svg viewBox="0 0 395.52 247.2" height="247.2" width="395.52"><g><svg></svg></g><g><svg viewBox="0 0 395.52 247.2" height="247.2" width="395.52"><g transform="matrix(1,0,0,1,75.54432,73.85866915153866)"><svg viewBox="0 0 244.43135999999998 99.48266169692266" height="99.48266169692266" width="244.43135999999998"><g><svg viewBox="0 0 359.2246302889919 146.2030991777892" height="99.48266169692266" width="244.43135999999998"><g transform="matrix(1,0,0,1,114.79327028899189,45.17887976884319)"><svg viewBox="0 0 244.43135999999998 55.84533964010283" height="55.84533964010283" width="244.43135999999998"><g id="textblocktransform"><svg viewBox="0 0 244.43135999999998 55.84533964010283" height="55.84533964010283" width="244.43135999999998" id="textblock"><g><svg viewBox="0 0 244.43135999999998 55.84533964010283" height="55.84533964010283" width="244.43135999999998"><g transform="matrix(1,0,0,1,0,0)"><svg width="244.43135999999998" viewBox="1.65 -35.2 155.57999999999998 35.550000000000004" height="55.84533964010283" data-palette-color="#dedad7"><path d="M19.1-23.3L19.55-23 17.1-5.45 16.85-0.15 13.05 0.2 14.5-10.05 14-10.05Q10.35-3.65 6.15 0.35L6.15 0.35 5.45 0.35Q1.65-1.8 1.65-7.5L1.65-7.5Q1.65-11.1 3-14.5 4.35-17.9 6.98-20.28 9.6-22.65 13.35-23.25L13.35-23.25 13.6-23.25 16.7-22.1 19.1-23.3ZM6.5-3.75Q7.1-3.75 8.58-5.4 10.05-7.05 11.93-10.2 13.8-13.35 15.6-17.6L15.6-17.6 15.65-17.9 15.7-19.1 12.6-20.2Q10.3-20.2 8.58-18.63 6.85-17.05 5.95-14.38 5.05-11.7 5.05-8.45L5.05-8.45Q5.05-5.95 5.5-4.85 5.95-3.75 6.5-3.75L6.5-3.75ZM38.1-23.1L39.3-23 38.55-18 38.25-17.85 37.8-17.9Q35.4-17.55 33.2-14.63 31-11.7 28.1-4.5L28.1-4.5 27.9-0.15 24.1 0.2 26.7-17.95 26.95-22.8 30.6-23.15 29.1-12.15 29.5-12.15Q31.3-15.8 33.37-18.48 35.45-21.15 38.1-23.1L38.1-23.1ZM51.55-23.2L54.75-22.2 55.05-21.65 54.05-18.7 53.25-18.55Q52.3-19.55 51.52-19.93 50.75-20.3 49.9-20.3L49.9-20.3Q46.9-20.3 45.15-17.15 43.4-14 43.4-8.55L43.4-8.55Q43.4-5.45 44.1-4.13 44.8-2.8 46.3-2.8L46.3-2.8Q48.95-2.8 51.5-7.3L51.5-7.3 52.05-7.25 53.2-5.65Q51.65-3 49.97-1.65 48.3-0.3 46.05 0.35L46.05 0.35 45.45 0.35Q42.55-0.15 41.22-1.93 39.9-3.7 39.9-7.9L39.9-7.9Q39.9-14.6 42.82-18.9 45.75-23.2 51.55-23.2L51.55-23.2ZM71.84-23.25Q73.59-22.85 74.67-21.73 75.74-20.6 75.69-18.9L75.69-18.9 75.64-18.25 73.59-5.4 73.29-0.15 69.44 0.2 72.19-16.9 72.24-17.55Q72.24-19.1 71.19-19.1L71.19-19.1Q69.74-19.1 67.12-15.45 64.49-11.8 61.24-5.05L61.24-5.05 60.99-0.15 57.19 0.2 61.49-30 61.59-34.85 65.39-35.2 62.14-11.9 62.59-11.9Q65.04-16.2 67.09-18.88 69.14-21.55 71.29-23.25L71.29-23.25 71.84-23.25ZM87.04-23.15L84.54-5.45 84.34-0.15 80.54 0.2 83.14-17.95 83.34-22.8 87.04-23.15ZM86.19-32.95Q87.14-32.95 87.72-32.4 88.29-31.85 88.29-30.85L88.29-30.85Q88.29-29.8 87.69-29.15 87.09-28.5 86.09-28.5L86.09-28.5Q85.09-28.5 84.52-29.1 83.94-29.7 83.94-30.7L83.94-30.7Q83.94-31.7 84.54-32.33 85.14-32.95 86.19-32.95L86.19-32.95ZM98.84-20L96.49-5.55 96.39-4.75Q96.39-4 96.74-3.55 97.09-3.1 97.74-3.1L97.74-3.1Q99.54-3.1 102.09-7.1L102.09-7.1 102.54-7.1 103.59-5.75Q101.84-2.85 100.44-1.5 99.04-0.15 97.29 0.35L97.29 0.35Q95.29 0.35 94.16-0.75 93.04-1.85 93.04-3.85L93.04-3.85 93.14-5.05 95.29-17.95 95.54-20 92.19-20 91.94-20.25 92.19-22.5 95.89-22.5 96.59-28.05 100.04-29.65 100.34-29.35 99.24-22.5 105.34-22.5 105.64-22.1 105.39-20 98.84-20ZM119.64-7L120.24-6.95 121.44-5.4Q119.84-2.95 117.94-1.55 116.04-0.15 113.64 0.35L113.64 0.35 113.04 0.35Q109.84-0.05 108.36-2 106.89-3.95 106.89-7.8L106.89-7.8Q106.89-12.2 108.31-15.7 109.74-19.2 112.21-21.2 114.69-23.2 117.89-23.3L117.89-23.3 118.29-23.25Q120.44-23 121.56-21.85 122.69-20.7 122.69-18.8L122.69-18.8Q122.69-15.8 119.59-13.28 116.49-10.75 110.39-8.85L110.39-8.85Q110.39-5.7 111.21-4.25 112.04-2.8 113.79-2.8L113.79-2.8Q115.29-2.8 116.66-3.8 118.04-4.8 119.64-7L119.64-7ZM117.09-20.6Q114.54-20.6 112.76-18.13 110.99-15.65 110.54-11.5L110.54-11.5Q114.84-12.9 117.06-14.68 119.29-16.45 119.29-18.55L119.29-18.55Q119.29-20.6 117.09-20.6L117.09-20.6ZM137.48-23.2L140.68-22.2 140.98-21.65 139.98-18.7 139.18-18.55Q138.23-19.55 137.46-19.93 136.68-20.3 135.83-20.3L135.83-20.3Q132.83-20.3 131.08-17.15 129.33-14 129.33-8.55L129.33-8.55Q129.33-5.45 130.03-4.13 130.73-2.8 132.23-2.8L132.23-2.8Q134.88-2.8 137.43-7.3L137.43-7.3 137.98-7.25 139.13-5.65Q137.58-3 135.91-1.65 134.23-0.3 131.98 0.35L131.98 0.35 131.38 0.35Q128.48-0.15 127.16-1.93 125.83-3.7 125.83-7.9L125.83-7.9Q125.83-14.6 128.76-18.9 131.68-23.2 137.48-23.2L137.48-23.2ZM150.43-20L148.08-5.55 147.98-4.75Q147.98-4 148.33-3.55 148.68-3.1 149.33-3.1L149.33-3.1Q151.13-3.1 153.68-7.1L153.68-7.1 154.13-7.1 155.18-5.75Q153.43-2.85 152.03-1.5 150.63-0.15 148.88 0.35L148.88 0.35Q146.88 0.35 145.76-0.75 144.63-1.85 144.63-3.85L144.63-3.85 144.73-5.05 146.88-17.95 147.13-20 143.78-20 143.53-20.25 143.78-22.5 147.48-22.5 148.18-28.05 151.63-29.65 151.93-29.35 150.83-22.5 156.93-22.5 157.23-22.1 156.98-20 150.43-20Z" opacity="1" transform="matrix(1,0,0,1,0,0)" fill="#dedad7" class="wordmark-text-0" data-fill-palette-color="primary" id="text-0"></path></svg></g></svg></g></svg></g></svg></g><g><svg viewBox="0 0 101.60952588811497 146.2030991777892" height="146.2030991777892" width="101.60952588811497"><g><svg xmlns="http://www.w3.org/2000/svg" xmlns:xlink="http://www.w3.org/1999/xlink" version="1.1" x="0" y="0" viewBox="18.725 4.999996845362818 62.549 90.00000315463718" enable-background="new 0 0 100 100" xml:space="preserve" height="146.2030991777892" width="101.60952588811497" class="icon-icon-0" data-fill-palette-color="accent" id="icon-0"><path d="M60.619 40.489C60.55 43.679 55.822 46.253 50 46.253 44.177 46.253 39.45 43.679 39.381 40.489 31.261 41.232 24.749 47.518 23.659 55.531H76.341C75.251 47.518 68.739 41.231 60.619 40.489" fill="#b4bfc5" data-fill-palette-color="accent"></path><path d="M50 39.938C44.09 39.938 39.206 33.532 38.421 25.215H36.815C37.708 34.687 43.269 41.985 50 41.985 56.729 41.985 62.293 34.688 63.186 25.215H61.578C60.793 33.532 55.91 39.938 50 39.938" fill="#b4bfc5" data-fill-palette-color="accent"></path><path d="M36.187 23.245H63.812A1.948 1.948 0 1 0 63.812 19.348H63.282C63.282 14.172 60.317 9.69 55.997 7.499L54.896 13.739A1.02 1.02 0 0 1 52.891 13.386L54.148 6.257A2.66 2.66 0 0 0 51.884 5H48.115C47.16 5 46.324 5.502 45.852 6.256L47.109 13.385A1.018 1.018 0 1 1 45.105 13.738L44.003 7.5C39.681 9.691 36.718 14.172 36.718 19.349H36.187A1.948 1.948 0 0 0 36.187 23.245" fill="#b4bfc5" data-fill-palette-color="accent"></path><path fill="#b4bfc5" d="M73.907 92.915H26.093A1.042 1.042 0 1 0 26.093 95H73.907A1.043 1.043 0 0 0 73.907 92.915" data-fill-palette-color="accent"></path><path d="M76.369 56.92H23.631A4.91 4.91 0 0 0 18.725 61.825V61.944L18.746 62.061 23.122 87.444A4.91 4.91 0 0 0 28.025 92.221H71.974A4.91 4.91 0 0 0 76.877 87.444L81.253 62.061 81.274 61.944V61.825A4.91 4.91 0 0 0 76.369 56.92M50 76.216A2.085 2.085 0 1 1 49.998 72.046 2.085 2.085 0 0 1 50 76.216" fill="#b4bfc5" data-fill-palette-color="accent"></path></svg></g></svg></g></svg></g></svg></g><g><path d="M0 123.6c0-68.262 55.338-123.6 123.6-123.6 48.81 0 91.012 28.293 111.101 69.373l-1.911 0c-19.955-40.104-61.354-67.66-109.19-67.66-67.316 0-121.887 54.57-121.887 121.887 0 67.316 54.57 121.887 121.887 121.887 47.835 0 89.234-27.556 109.19-67.66h1.911c-20.088 41.08-62.29 69.373-111.101 69.373-68.262 0-123.6-55.338-123.6-123.6z" fill="#dedad7" stroke="transparent" data-fill-palette-color="tertiary"></path></g></svg></g><defs></defs></svg><rect width="395.52" height="247.2" fill="none" stroke="none" visibility="hidden"></rect></g></svg></g></svg>